<svg width="312" height="408" viewBox="0 0 312 408" fill="none" xmlns="http://www.w3.org/2000/svg">
<g clip-path="url(#clip0_3_93)">
<path d="M268.975 0.32289L290.992 0.269506C294.59 0.248495 299.81 -0.566378 303.229 0.744232C305.322 1.54604 307.095 3.51423 308.61 6.15022C310.916 10.1627 311.904 14.839 311.925 20.5232L311.954 267.978L311.941 352.386L311.971 376.979C311.973 381.411 312.089 386 311.844 390.408C311.609 394.676 310.456 398.95 308.754 401.976C307.034 405.036 304.624 407.201 302.19 407.601C298.869 408.148 295.41 407.816 292.074 407.805L274.345 407.728L219.56 407.663L43.7758 407.806L21.0741 407.836C17.444 407.826 12.0302 408.521 8.63159 407.123C6.73512 406.343 4.90153 404.525 3.49398 402.15C1.13535 398.169 0.198558 393.502 0.136952 387.819C0.0631328 381.006 0.143633 374.165 0.134618 367.348L0.139062 308.813L0.0914579 134.377L0.0551721 54.8609L0.0490975 30.6038C0.0492573 26.3852 -0.107652 21.9468 0.13871 17.7572C0.35681 14.0485 1.43702 9.67263 2.908 6.99406C4.65974 3.80441 6.95881 1.09404 9.50488 0.609088C12.3966 0.0582677 15.4859 0.373991 18.3959 0.364905L35.312 0.390466L85.7338 0.388759L268.975 0.32289Z" fill="white"/>
<path d="M20.4475 21.1351C26.4486 20.8503 32.4805 21.103 38.4853 21.1113L73.3062 21.139L190.72 21.1717L256.488 21.1279L278.259 21.2293C281.875 21.2653 285.688 20.8326 289.271 21.5136C289.79 21.6122 290.171 21.7419 290.484 22.5841C290.726 23.2374 290.812 24.2304 290.853 24.9995C291.025 28.2698 290.875 31.8045 290.883 35.107C290.894 40.2929 291.204 46.5759 290.767 51.6299C290.39 52.1286 289.927 51.984 289.485 51.9696L19.0651 51.9641C19.1264 47.2403 18.7825 26.2955 19.2489 23.4723C19.4522 22.2411 19.8914 21.7867 20.4475 21.1351Z" fill="#D8D8D8"/>
<path d="M40.3581 30C65.0941 30.397 89.8935 30.1603 114.636 30.1197L205.617 30.1993L246.429 30.1823C253.385 30.1763 260.586 29.9297 267.517 30.246C269.728 30.3465 271.701 30.6644 273.47 31.5584C275.479 32.5743 276.71 34.1679 276.951 35.7905C277.226 37.6498 276.347 39.4955 274.362 40.8776C272.27 42.3328 269.731 42.8061 266.729 42.8462L101.843 42.9022L59.1848 42.8402C52.2434 42.8429 44.9611 43.1933 38.0574 42.8479C36.6707 42.7781 35.9221 42.4832 34.806 41.9863C32.2938 40.8666 30.5285 39.2577 30.102 37.2918C30.0556 37.089 30.0251 36.8851 30.0103 36.6801C29.9955 36.4751 29.9966 36.2703 30.0136 36.0656C30.0305 35.8606 30.0633 35.6567 30.1118 35.4539C30.1603 35.2515 30.2244 35.0508 30.304 34.8521C30.3835 34.6533 30.4782 34.4576 30.5881 34.265C30.6979 34.0725 30.8225 33.8838 30.9619 33.6989C31.1006 33.5144 31.2534 33.3346 31.4201 33.1597C31.5874 32.9847 31.7676 32.8154 31.9606 32.6517C34.1268 30.8429 36.9405 30.2262 40.3581 30Z" fill="white"/>
<path d="M21.5901 60.2606C32.8945 59.7593 44.2474 60.136 55.5574 60.1331L119.949 60.1758L290.995 60.1809L291 274.042L290.989 348.992L290.963 372.405C290.956 376.768 291.027 381.211 290.896 385.566C290.871 386.405 290.789 386.895 290.488 387.536C289.71 388.279 288.676 387.923 287.82 387.858L19.0602 387.785L19 60.3618L21.5901 60.2606Z" fill="#D8D8D8"/>
<path d="M48.2661 357.751L207.108 357.926L243.237 357.996C247.59 357.991 255.727 357.459 259.609 358.131C260.837 358.344 262.071 358.939 262.724 360.046C263.294 361.011 263.298 362.209 262.96 363.253C262.419 364.924 261.456 365.573 259.934 366.309C253.74 366.638 247.441 366.36 241.235 366.31L213.701 366.252L111.035 366.059L67.3317 366.003C62.6194 366.01 52.352 366.82 48.3172 365.819C47.1703 365.534 45.6869 364.916 45.1265 363.783C44.595 362.709 44.7457 361.775 45.1475 360.694C45.7767 359.002 46.6713 358.473 48.2661 357.751Z" fill="white"/>
<path d="M48.024 313.431C60.0033 312.961 72.1486 313.378 84.1472 313.381L154.818 313.42L223.162 313.436L242.705 313.44C247.298 313.409 251.942 313.228 256.529 313.408C257.784 313.457 259.076 313.653 260.252 314.105C261.406 314.548 262.554 315.284 263.01 316.488C263.395 317.501 263.142 318.695 262.688 319.646C262.111 320.853 261.071 321.434 259.866 321.878C249.051 322.083 238.215 321.949 227.398 321.947L158.788 321.816L76.8597 321.71C73.017 321.705 49.4057 322.231 47.3909 321.47C46.2871 321.053 45.5602 320.246 45.1316 319.155C44.6679 317.975 44.7525 316.727 45.3033 315.592C45.9273 314.305 46.7014 313.859 48.024 313.431Z" fill="white"/>
<path d="M150.684 81.0566C157.751 80.9509 174.67 80.7457 181.06 83.0981C181.961 83.4295 182.888 83.8722 183.587 84.5452C187.125 87.9496 190.68 96.787 192.78 101.295C198.01 104.312 203.854 106.545 209.414 108.882C214.546 111.071 219.667 113.288 224.776 115.533C228.672 117.221 232.819 118.722 236.405 121.016C237.746 121.892 239.013 122.865 240.206 123.934C241.399 125.002 242.505 126.155 243.523 127.391C244.146 128.141 244.74 128.911 245.307 129.703C245.874 130.495 246.411 131.307 246.92 132.138C247.428 132.969 247.905 133.817 248.352 134.682C248.799 135.548 249.213 136.428 249.596 137.324C252.625 144.467 278.034 219.327 277.489 221.504C277.107 223.028 275.474 224.377 274.176 225.1C271.585 226.542 251.205 233.219 248.217 233.801C247.378 233.964 246.68 233.929 245.861 233.662C244.856 233.334 244.037 232.764 243.467 231.865C241.77 229.187 240.89 225.569 239.79 222.596C237.866 217.46 235.916 212.334 233.939 207.218C232.711 204.055 231.567 200.718 229.986 197.72C229.939 197.63 229.89 197.542 229.841 197.453C229.944 218.721 231.487 240.012 232.232 261.275C232.492 268.69 233.236 276.386 232.916 283.785C232.872 284.788 232.897 286.201 232.149 286.932C229.969 289.063 220.681 289.637 217.426 290.006C194.852 292.569 174.162 293.219 151.478 293.219C139.618 293.223 80.7365 290.682 73.15 286.277C72.4271 285.18 72.5907 282.513 72.6413 281.146C72.9926 271.642 74.2589 262.032 75.004 252.541C75.8084 241.806 76.5037 231.065 77.0899 220.316C77.6401 211.581 78.3266 202.87 78.7114 194.122L70.2906 218.412C68.9106 222.336 67.7375 226.551 66.0194 230.335C65.5704 231.324 64.8753 232.772 63.9824 233.439C62.74 234.368 60.4693 234.118 59.0649 233.814C56.8529 233.334 54.6891 232.41 52.4884 231.834C47.0345 230.405 38.1806 228.707 33.2597 226.479C32.1452 225.974 30.7698 225.159 30.1667 224.043C29.6518 223.091 30.4662 220.329 30.7698 219.267C31.886 215.367 33.3808 211.503 34.7124 207.669C37.9017 198.726 41.0235 189.759 44.0779 180.769L54.7624 148.498C56.4925 143.408 58.0032 137.812 60.4051 133.001C60.6878 132.429 60.9871 131.867 61.3031 131.313C61.6188 130.759 61.9505 130.215 62.2983 129.68C62.6465 129.146 63.0099 128.622 63.3884 128.109C63.767 127.596 64.1605 127.094 64.5689 126.604C64.977 126.114 65.3991 125.637 65.8352 125.171C66.2717 124.707 66.7213 124.255 67.1839 123.816C67.647 123.377 68.1223 122.952 68.6099 122.542C69.098 122.131 69.5976 121.735 70.1087 121.354C75.0517 117.704 80.9269 115.384 86.5389 112.967C95.0927 109.284 105.466 105.249 113.492 100.789L113.854 100.585C116.038 95.947 118.62 89.0858 122.03 85.321C125.672 81.2998 145.058 81.2492 150.684 81.0566Z" fill="white"/>
<path d="M182.836 98.1721C183.757 99.0622 184.206 101.586 184.525 102.811C187.567 114.531 176.421 131.947 170.542 141.868L166.475 135.624C163.638 130.939 160.332 126.559 157.562 121.828C167.988 116.179 177.213 108.824 182.836 98.1721Z" fill="#D8D8D8"/>
<path d="M124.305 97.0292C125.723 98.7985 126.302 101.414 127.611 103.36C133.097 111.521 140.965 117.151 149.397 121.901C146.409 126.471 143.251 130.949 140.171 135.46C138.803 137.723 137.532 140.05 136.229 142.351C131.827 134.231 126.809 126.684 123.764 117.883C121.11 110.212 120.665 104.437 124.305 97.0292Z" fill="#D8D8D8"/>
<path d="M141.986 89.8571C152.929 89.0778 166.081 89.5564 176.985 90.7931C172.575 99.9818 168.916 104.101 160.847 110.282C158.496 112.038 155.997 113.709 153.419 115.11C143.657 109.169 134.777 101.23 129.832 90.7494C133.877 90.3637 137.928 90.0662 141.986 89.8571Z" fill="#D8D8D8"/>
<path d="M112.654 110.121C114.009 110.17 114.313 114.071 114.54 115.192C116.728 126.062 123.142 136.5 128.933 145.813C130.416 148.197 131.905 151.211 134.096 152.988C134.962 153.692 136.309 154.369 137.464 154.066C138.416 153.816 139.226 152.667 139.764 151.917C141.407 149.625 142.552 146.966 143.984 144.539C145.883 141.322 148.065 138.331 149.74 134.978L149.556 285.385C138.021 285.235 126.501 284.744 114.994 283.912C103.488 283.079 92.0172 281.907 80.5807 280.394C80.7342 274.704 81.3827 268.944 81.8374 263.267L84.3427 232.578C84.4081 228.331 84.8963 224.016 85.1395 219.766C85.8318 208.076 86.6034 196.392 87.4545 184.712C87.8199 179.421 88.4496 173.977 88.4565 168.683C88.4587 167.351 88.3678 165.948 87.8949 164.692C87.5227 163.703 86.8815 162.842 85.8682 162.452C85.0048 162.119 83.9824 162.131 83.1531 162.553C81.8715 163.204 81.1457 165.095 80.6023 166.356C79.24 169.518 78.1959 172.881 77.0376 176.124C74.4538 183.357 72.007 190.623 69.5301 197.892C66.3223 207.304 62.6365 216.57 59.2263 225.911C52.5572 223.72 45.6977 222.082 38.9814 220.026C40.5574 214.915 42.5075 209.879 44.2342 204.813L57.1945 167.189C60.579 157.402 63.1094 147.086 67.143 137.553C68.7611 133.729 71.9462 130.142 75.2768 127.709C81.0485 123.493 88.2757 121.167 94.7647 118.253C100.744 115.568 106.594 112.627 112.654 110.121Z" fill="#D8D8D8"/>
<path d="M193.241 110.288C202.823 114.292 212.295 118.602 221.776 122.839C226.718 125.048 232.961 127.301 236.657 131.405C244.967 140.634 254.395 175.203 258.461 188.145C261.673 198.369 264.985 208.687 268.812 218.697C262.235 220.919 255.675 222.974 249.186 225.464C248.13 221.383 246.472 217.374 244.997 213.427C242.036 205.504 238.845 197.673 235.856 189.763C234.202 185.388 227.79 166.199 225.783 163.653C225.277 163.012 224.306 162.642 223.505 162.639C222.513 162.636 221.502 163.09 220.82 163.804C220.285 164.364 219.989 164.967 219.936 165.745C219.737 168.649 220.168 171.705 220.377 174.607C220.673 178.734 220.919 182.863 221.115 186.995C221.813 201.016 222.104 215.036 222.988 229.056C223.269 246.344 224.479 263.641 224.767 280.943C217.953 282.384 210.872 283.054 203.948 283.7C188.429 285.149 173.016 285.617 157.439 285.631C158.163 261.686 157.47 237.645 157.254 213.693C157.141 201.117 157.412 188.555 157.435 175.982L157.333 136.036C159.405 139.117 166.416 152.659 169.144 153.62C170.203 153.992 171.44 153.51 172.318 152.907C175.016 151.054 176.774 147.028 178.4 144.238C184.637 133.541 190.898 122.6 193.241 110.288Z" fill="#D8D8D8"/>
<path d="M168.356 177.863C176.279 177.701 184.24 177.889 192.167 177.873C197.404 177.861 202.936 177.489 208.132 177.939C209.436 178.052 211.758 178.231 212.657 179.225C213.953 180.656 213.412 213.296 213.365 218.061C210.039 221.547 206.156 224.524 202.431 227.571C200.009 229.478 191.98 237.167 189.452 236.999C188.265 236.92 186.97 236.199 186.004 235.554C183.568 233.925 181.31 231.696 179.073 229.788C174.771 226.12 170.161 222.495 166.306 218.363C166.305 218.32 166.303 218.278 166.302 218.236L166.275 195.663C166.264 190.993 165.739 185.714 166.611 181.145C166.884 179.716 167.354 178.901 168.356 177.863Z" fill="white"/>
<path d="M174.106 186.033C184.366 185.939 194.626 185.928 204.886 186C204.913 195.511 205.226 205.016 205.109 214.528C202.664 216.81 200.018 218.931 197.474 221.106C194.699 223.427 192.252 226.122 189.378 228.326C184.102 223.917 178.991 219.326 174.043 214.552C174.115 205.046 174.136 195.539 174.106 186.033Z" fill="#D8D8D8"/>
</g>
<defs>
<clipPath id="clip0_3_93">
<rect width="312" height="408" rx="31" fill="white"/>
</clipPath>
</defs>
</svg>
