<svg width="336" height="323" viewBox="0 0 336 323" fill="none" xmlns="http://www.w3.org/2000/svg">
<path d="M106.691 98.694L151.831 17.284C156.047 9.684 158.031 1.468 167.683 0C179.641 1.074 188.917 25.866 194.427 35.832L228.573 98.694C240.717 99.886 325.677 111.072 330.913 114.958C345.429 125.728 323.267 141.732 316.205 149.206L285.303 182.118C277.287 190.538 268.783 198.768 261.531 207.862C264.145 219.632 279.917 308.698 277.517 315.86C272.485 330.882 249.963 315.408 241.841 311.864C217.651 301.31 193.653 289.672 169.057 280.146C163.351 278.822 89.4612 316.19 73.442 320.308C48.6054 326.694 61.2518 290.448 63.223 278.872C67.2538 255.206 71.4762 231.588 75.1452 207.862C67.0436 198.588 1.99537 132.132 0.425367 126.738C-3.96223 111.662 26.859 110.972 34.699 109.802C58.5846 106.238 83.0572 103.606 106.691 98.694ZM167.683 36.14L139.225 86.704C117.927 125.088 128.437 118.502 84.5572 125.46L50.5124 130.632C45.6948 131.358 40.8114 132.45 35.9798 132.948C48.8904 146.058 61.1766 159.672 73.8236 173.024C101.843 202.602 101.855 191.376 95.0392 229.368C91.3752 249.776 86.9592 270.588 84.7792 291.208C98.2812 285.066 160.409 255.71 169.057 255.026C180.511 258.874 191.583 264.292 202.615 269.202L251.935 291.208C249.903 271.926 246.019 252.796 242.649 233.708C235.065 190.772 234.837 201.508 266.151 168.882C277.509 157.048 288.515 144.884 299.763 132.948C280.001 129.09 259.951 126.592 240.061 123.464C229.393 121.786 217.467 123.138 210.825 113.338C202.777 101.464 172.919 39.806 167.683 36.14Z" fill="black"/>
<path d="M75 301L87 206.5L17.5 125L110 111.5L166 16L221 105.5L316.5 125L252.5 201L264.5 301L170.5 270.5L75 301Z" fill="black" stroke="black"/>
</svg>
